<svg width="24" height="24" viewBox="0 0 24 24" fill="none" xmlns="http://www.w3.org/2000/svg">
<path d="M7.4988 5.25C7.02 5.24986 6.54977 5.37705 6.13632 5.61853C5.72287 5.86001 5.38107 6.20708 5.14596 6.62419C4.91085 7.04129 4.79088 7.51341 4.79836 7.99215C4.80583 8.4709 4.94048 8.93904 5.1885 9.3486C4.57249 9.46763 4.01713 9.7974 3.61778 10.2813C3.21843 10.7652 3 11.373 3 12.0004C3 12.6279 3.21843 13.2357 3.61778 13.7196C4.01713 14.2035 4.57249 14.5333 5.1885 14.6523M7.4988 5.25C7.4988 4.65326 7.73585 4.08097 8.15781 3.65901C8.57977 3.23705 9.15206 3 9.7488 3C10.3455 3 10.9178 3.23705 11.3398 3.65901C11.7617 4.08097 11.9988 4.65326 11.9988 5.25M7.4988 5.25C7.4988 5.9862 7.8525 6.6396 8.3988 7.05M5.1885 14.6523C4.94071 15.0618 4.80625 15.5299 4.79889 16.0085C4.79154 16.4871 4.91155 16.9591 5.14663 17.376C5.38172 17.793 5.72342 18.14 6.13674 18.3814C6.55006 18.6228 7.02013 18.75 7.4988 18.75C7.4988 19.3467 7.73585 19.919 8.15781 20.341C8.57977 20.7629 9.15206 21 9.7488 21C10.3455 21 10.9178 20.7629 11.3398 20.341C11.7617 19.919 11.9988 19.3467 11.9988 18.75M5.1885 14.6523C5.51149 14.1176 6.0099 13.7114 6.5988 13.503M11.9988 5.25V18.75M11.9988 5.25C11.9988 4.65326 12.2359 4.08097 12.6578 3.65901C13.0798 3.23705 13.6521 3 14.2488 3C14.8455 3 15.4178 3.23705 15.8398 3.65901C16.2617 4.08097 16.4988 4.65326 16.4988 5.25C16.9776 5.24986 17.4478 5.37705 17.8613 5.61853C18.2747 5.86001 18.6165 6.20708 18.8516 6.62419C19.0868 7.04129 19.2067 7.51341 19.1992 7.99215C19.1918 8.4709 19.0571 8.93904 18.8091 9.3486M11.9988 18.75C11.9988 19.3467 12.2359 19.919 12.6578 20.341C13.0798 20.7629 13.6521 21 14.2488 21C14.8455 21 15.4178 20.7629 15.8398 20.341C16.2617 19.919 16.4988 19.3467 16.4988 18.75M16.4988 18.75C16.9775 18.75 17.4475 18.6228 17.8609 18.3814C18.2742 18.14 18.6159 17.793 18.851 17.376C19.0861 16.9591 19.2061 16.4871 19.1987 16.0085C19.1914 15.5299 19.0569 15.0618 18.8091 14.6523C19.4251 14.5333 19.9805 14.2035 20.3798 13.7196C20.7792 13.2357 20.9976 12.6279 20.9976 12.0004C20.9976 11.373 20.7792 10.7652 20.3798 10.2813C19.9805 9.7974 19.4251 9.46763 18.8091 9.3486M16.4988 18.75C16.4988 18.0138 16.1451 17.3604 15.5988 16.95M18.8091 9.3486C18.4858 9.88264 17.9874 10.2881 17.3988 10.4961" stroke="#111827" stroke-width="1.68728" stroke-linecap="round" stroke-linejoin="round"/>
</svg>
